Coordinates
version=1
nRows=31
nColumns=38
inDegrees=no

Units are S.I. units (second, meters, Newtons, ...)
If the header above contains a line with 'inDegrees', this indicates whether rotational values are in degrees (yes) or radians (no).

endheader
time	pelvis_tilt	pelvis_list	pelvis_rotation	pelvis_tx	pelvis_ty	pelvis_tz	hip_flexion_r	hip_adduction_r	hip_rotation_r	knee_angle_r	ankle_angle_r	subtalar_angle_r	mtp_angle_r	hip_flexion_l	hip_adduction_l	hip_rotation_l	knee_angle_l	ankle_angle_l	subtalar_angle_l	mtp_angle_l	lumbar_extension	lumbar_bending	lumbar_rotation	arm_flex_r	arm_add_r	arm_rot_r	elbow_flex_r	pro_sup_r	wrist_flex_r	wrist_dev_r	arm_flex_l	arm_add_l	arm_rot_l	elbow_flex_l	pro_sup_l	wrist_flex_l	wrist_dev_l
0	1.87209	1.36544	-0.378061	0.707788	-0.381491	0.980302	-0.00770774	0.141582	-0.23532	0.261466	0.068322	0	0	-0.16436	-0.145214	-0.192704	0	0.064855	0	0	-0.128697	0.215012	0.042751	-0.188271	-0.280153	0.27055	0.727296	1.32888	0	0	-0.176762	-0.159142	0.337029	0.633457	1.01542	0	0
0.01	1.81779	1.3751	-0.319426	0.709091	-0.380343	0.979891	0.00495487	0.137878	-0.239025	0.259877	0.0689403	0	0	-0.149149	-0.141776	-0.18698	0	0.0631529	0	0	-0.110992	0.202303	0.046402	-0.183598	-0.211951	0.0881506	0.670183	1.52609	0	0	-0.167067	-0.164164	0.35836	0.626552	1.01115	0	0
0.02	1.82605	1.37585	-0.324594	0.709728	-0.379843	0.979913	0.00158196	0.137839	-0.239866	0.257591	0.0692696	0	0	-0.150602	-0.141586	-0.185389	0	0.0637082	0	0	-0.111097	0.201444	0.0451717	-0.182172	-0.209846	0.0866944	0.67608	1.53621	0	0	-0.159721	-0.162925	0.366209	0.622306	1.01234	0	0
0.03	1.8354	1.37674	-0.33153	0.710362	-0.379178	0.979915	-0.00197325	0.137614	-0.241117	0.255149	0.0700932	0	0	-0.152377	-0.141092	-0.18365	0	0.0640942	0	0	-0.111389	0.200305	0.0446537	-0.179546	-0.208316	0.0883528	0.67872	1.54605	0	0	-0.152115	-0.161665	0.374888	0.617469	1.01416	0	0
0.04	1.84391	1.37784	-0.337719	0.711016	-0.378536	0.979898	-0.00504383	0.137208	-0.24222	0.25295	0.0709882	0	0	-0.153757	-0.140419	-0.18205	0	0.06449	0	0	-0.11149	0.199054	0.0439035	-0.175369	-0.207485	0.0939904	0.677706	1.55817	0	0	-0.1444	-0.160259	0.383386	0.611717	1.0164	0	0
0.05	1.85106	1.37902	-0.3425	0.711652	-0.377971	0.979868	-0.00780395	0.136893	-0.242955	0.250522	0.071753	0	0	-0.154752	-0.139789	-0.180642	0	0.0649123	0	0	-0.111268	0.197853	0.0428219	-0.170537	-0.207065	0.0998957	0.678053	1.56647	0	0	-0.136463	-0.158595	0.391453	0.605222	1.01898	0	0
0.06	1.87633	1.37695	-0.36652	0.711971	-0.37725	0.979887	-0.0155428	0.138225	-0.243147	0.247262	0.0726837	0	0	-0.160899	-0.140572	-0.181202	0	0.0661222	0	0	-0.118942	0.200402	0.0495456	-0.158402	-0.174153	-0.15373	0.720282	0.374819	0	0	-0.12355	-0.156025	0.406791	0.597466	1.02159	0	0
0.07	1.86089	1.38082	-0.349304	0.712983	-0.37652	0.979714	-0.0132114	0.137274	-0.243795	0.244675	0.0731029	0	0	-0.156648	-0.139208	-0.17854	0	0.0657057	0	0	-0.109597	0.196532	0.0410759	-0.158994	-0.209782	0.128265	0.673103	1.54049	0	0	-0.121669	-0.154209	0.405217	0.590188	1.02583	0	0
0.08	1.85944	1.38174	-0.347666	0.713748	-0.375968	0.979603	-0.0141723	0.13757	-0.244511	0.242894	0.0737797	0	0	-0.156555	-0.139162	-0.178097	0	0.0662554	0	0	-0.108087	0.196278	0.0420255	-0.153437	-0.209525	0.129861	0.669493	1.55647	0	0	-0.114367	-0.152199	0.412404	0.583807	1.02553	0	0
0.09	1.8516	1.38295	-0.340848	0.714587	-0.375576	0.979445	-0.0127378	0.137574	-0.246713	0.243011	0.0749481	0	0	-0.155169	-0.139154	-0.178313	0	0.066805	0	0	-0.105782	0.196133	0.0439434	-0.148125	-0.209783	0.131883	0.667839	1.56138	0	0	-0.106967	-0.149957	0.419025	0.577912	1.02247	0	0
0.1	1.85009	1.38376	-0.338852	0.715352	-0.375331	0.979422	-0.0136014	0.138007	-0.246231	0.241282	0.0748616	0	0	-0.154841	-0.139292	-0.17744	0	0.067331	0	0	-0.104886	0.195914	0.0445013	-0.143532	-0.210336	0.134008	0.668879	1.55725	0	0	-0.0995587	-0.147926	0.425058	0.571977	1.01854	0	0
0.11	1.84358	1.38994	-0.32642	0.715459	-0.375958	0.979461	-0.00841233	0.132703	-0.251527	0.242564	0.0760073	0	0	-0.148258	-0.138967	-0.177427	0	0.0548715	0	0	-0.102576	0.190837	0.0393753	-0.135102	-0.20924	0.136387	0.667577	1.54458	0	0	-0.0898214	-0.146772	0.431778	0.565172	1.01194	0	0
0.12	1.85365	1.38524	-0.341085	0.716527	-0.374253	0.979367	-0.0171112	0.138464	-0.245996	0.236593	0.0755834	0	0	-0.155492	-0.139129	-0.176376	0	0.0679129	0	0	-0.103591	0.195859	0.0453058	-0.135214	-0.212724	0.141993	0.674835	1.52231	0	0	-0.0863935	-0.145303	0.441447	0.564314	0.999015	0	0
0.13	1.86799	1.38307	-0.356175	0.716881	-0.373926	0.979375	-0.0217825	0.140113	-0.244589	0.235175	0.0760178	0	0	-0.159573	-0.140472	-0.178652	0	0.0694987	0	0	-0.109811	0.199476	0.0536896	-0.12548	-0.181924	-0.110455	0.713309	0.344311	0	0	-0.07581	-0.144706	0.461882	0.563997	0.977153	0	0
0.14	1.86161	1.38381	-0.350293	0.717546	-0.373505	0.979273	-0.0213076	0.140537	-0.243936	0.234347	0.0764688	0	0	-0.158649	-0.140791	-0.178744	0	0.0699373	0	0	-0.107801	0.199859	0.0550629	-0.121092	-0.183726	-0.122386	0.71218	0.149489	0	0	-0.0707975	-0.144022	0.469646	0.563687	0.968998	0	0
0.15	1.85644	1.38447	-0.345463	0.718189	-0.373107	0.97919	-0.021058	0.140946	-0.243178	0.233518	0.0767884	0	0	-0.157974	-0.141126	-0.178485	0	0.0701654	0	0	-0.105997	0.200314	0.0558134	-0.117289	-0.185348	-0.120799	0.711029	0.139259	0	0	-0.0665449	-0.142974	0.473068	0.563934	0.96715	0	0
0.16	1.8173	1.38733	-0.310282	0.719179	-0.372283	0.978971	-0.0158817	0.135855	-0.252499	0.230623	0.0827408	0	0	-0.159037	-0.139982	-0.17779	0	0.0686075	0	0	-0.0933795	0.19994	0.0486839	-0.118979	-0.223076	0.175693	0.680869	1.40034	0	0	-0.0702016	-0.142908	0.468859	0.565564	0.962368	0	0
0.17	1.84715	1.3858	-0.336492	0.719378	-0.372362	0.979017	-0.0201307	0.141446	-0.242697	0.233109	0.0780199	0	0	-0.156669	-0.141685	-0.17786	0	0.0705851	0	0	-0.102632	0.201521	0.0560521	-0.110522	-0.189313	-0.105039	0.712601	0.216798	0	0	-0.0598406	-0.142665	0.479987	0.56748	0.960868	0	0
0.18	1.81112	1.38817	-0.304364	0.720309	-0.37162	0.978868	-0.0156568	0.136456	-0.251889	0.23031	0.0837295	0	0	-0.158502	-0.140698	-0.177469	0	0.0688176	0	0	-0.0913018	0.201319	0.0487961	-0.11168	-0.226407	0.179808	0.681908	1.39185	0	0	-0.0641443	-0.142293	0.470421	0.568886	0.967621	0	0
0.19	1.81061	1.38833	-0.303724	0.720816	-0.371398	0.978865	-0.0160022	0.136809	-0.251397	0.230049	0.0840251	0	0	-0.158377	-0.141205	-0.17737	0	0.0690717	0	0	-0.0911655	0.202088	0.04881	-0.108294	-0.227268	0.176803	0.681651	1.40216	0	0	-0.0610777	-0.142498	0.47179	0.571896	0.970856	0	0
0.2	1.82379	1.38972	-0.311697	0.721253	-0.371612	0.978857	-0.0156974	0.14106	-0.24186	0.232871	0.078687	0	0	-0.151271	-0.141511	-0.175381	0	0.0703213	0	0	-0.0929065	0.200272	0.0463889	-0.105317	-0.227485	0.175211	0.681091	1.40661	0	0	-0.0569977	-0.143757	0.472426	0.57555	0.974895	0	0
0.21	1.82025	1.39031	-0.307454	0.721705	-0.371336	0.978785	-0.0152172	0.141346	-0.241997	0.232655	0.0789982	0	0	-0.150558	-0.141687	-0.174996	0	0.0705121	0	0	-0.091606	0.200779	0.0453621	-0.102527	-0.228398	0.174049	0.680504	1.40889	0	0	-0.0550738	-0.14448	0.472834	0.57846	0.979007	0	0
0.22	1.81751	1.39086	-0.303999	0.722058	-0.371062	0.978713	-0.0148148	0.141546	-0.242396	0.23274	0.0795603	0	0	-0.149986	-0.141857	-0.174808	0	0.0706267	0	0	-0.0905172	0.201249	0.044409	-0.100014	-0.228986	0.172378	0.680166	1.41027	0	0	-0.0531526	-0.145723	0.476515	0.582707	0.988017	0	0
0.23	1.81661	1.39126	-0.302382	0.722484	-0.370793	0.978675	-0.0148017	0.141781	-0.242443	0.232717	0.0798442	0	0	-0.149815	-0.142032	-0.174524	0	0.0706119	0	0	-0.0900141	0.201734	0.0435221	-0.0976985	-0.229717	0.170879	0.679456	1.41099	0	0	-0.051248	-0.146835	0.479215	0.586292	0.995713	0	0
0.24	1.81654	1.39161	-0.301447	0.722951	-0.370567	0.978654	-0.0147579	0.141932	-0.242967	0.233018	0.08026	0	0	-0.149734	-0.142179	-0.174141	0	0.0707337	0	0	-0.0897676	0.202207	0.0424	-0.095465	-0.230338	0.169036	0.678325	1.41158	0	0	-0.0495481	-0.147919	0.480484	0.588993	1.00254	0	0
0.25	1.8165	1.39205	-0.300548	0.723264	-0.370347	0.978623	-0.0146002	0.142007	-0.24355	0.233447	0.0807474	0	0	-0.149619	-0.142264	-0.173679	0	0.0708904	0	0	-0.0892965	0.20268	0.0407675	-0.0930106	-0.230653	0.16722	0.677092	1.41209	0	0	-0.0482911	-0.148907	0.480169	0.590854	1.00711	0	0
0.26	1.81626	1.39242	-0.299528	0.72362	-0.370139	0.978586	-0.0143881	0.142122	-0.243976	0.233918	0.0812907	0	0	-0.149492	-0.142378	-0.173274	0	0.0709521	0	0	-0.0888276	0.203198	0.0393279	-0.0907443	-0.231003	0.165322	0.675582	1.41234	0	0	-0.046889	-0.1497	0.479584	0.592197	1.00966	0	0
0.27	1.80201	1.39201	-0.288756	0.723956	-0.369478	0.9785	-0.0141521	0.138256	-0.253738	0.231877	0.0874642	0	0	-0.155307	-0.142521	-0.174614	0	0.0704006	0	0	-0.0861227	0.205716	0.0395994	-0.0885763	-0.231916	0.16336	0.673897	1.41245	0	0	-0.0469511	-0.15013	0.480892	0.594589	1.01355	0	0
0.28	1.80197	1.39249	-0.287791	0.72427	-0.369288	0.978448	-0.0135559	0.138048	-0.255114	0.233185	0.0884248	0	0	-0.154852	-0.142631	-0.17422	0	0.0708636	0	0	-0.0858101	0.205922	0.0384814	-0.0873095	-0.232287	0.160962	0.672774	1.41239	0	0	-0.0453608	-0.151176	0.481875	0.596623	1.01705	0	0
0.29	1.8021	1.39286	-0.287087	0.72461	-0.369123	0.978413	-0.0131316	0.138046	-0.255846	0.234169	0.0890757	0	0	-0.154655	-0.142847	-0.173575	0	0.0710726	0	0	-0.0856581	0.206124	0.0375241	-0.0863001	-0.232564	0.158568	0.671752	1.41221	0	0	-0.0438574	-0.152001	0.48078	0.597601	1.01864	0	0
0.3	1.80211	1.39318	-0.286319	0.72496	-0.368978	0.978372	-0.0127592	0.138135	-0.256348	0.235033	0.0897922	0	0	-0.154376	-0.143093	-0.172845	0	0.0712204	0	0	-0.0854218	0.206351	0.0364309	-0.0852277	-0.232903	0.156627	0.670292	1.41207	0	0	-0.042592	-0.152864	0.479479	0.598306	1.01901	0	0
